<?xml version="1.0" encoding="UTF-8" standalone="no"?>
<!DOCTYPE svg PUBLIC "-//W3C//DTD SVG 1.1//EN"
 "http://www.w3.org/Graphics/SVG/1.1/DTD/svg11.dtd">
<!-- Generated by graphviz version 2.43.0 (0)
 -->
<!-- Title: sourcetree Pages: 1 -->
<svg width="659pt" height="260pt"
 viewBox="0.00 0.00 658.50 260.00" xmlns="http://www.w3.org/2000/svg" xmlns:xlink="http://www.w3.org/1999/xlink">
<g id="graph0" class="graph" transform="scale(1 1) rotate(0) translate(4 256)">
<title>sourcetree</title>
<polygon fill="white" stroke="transparent" points="-4,4 -4,-256 654.5,-256 654.5,4 -4,4"/>
<!-- mulle&#45;sprintf -->
<g id="node1" class="node">
<title>mulle&#45;sprintf</title>
<polygon fill="yellow" stroke="black" points="425,-252 316,-252 316,-216 425,-216 425,-252"/>
<text text-anchor="middle" x="370.5" y="-230.3" font-family="Times,serif" font-size="14.00">mulle&#45;sprintf</text>
</g>
<!-- mulle&#45;buffer -->
<g id="node5" class="node">
<title>mulle&#45;buffer</title>
<g id="a_node5"><a xlink:href="https://github.com/mulle-c/mulle-buffer" xlink:title="mulle&#45;buffer">
<polygon fill="lightgrey" stroke="black" points="176.5,-180 72.5,-180 72.5,-144 176.5,-144 176.5,-180"/>
<text text-anchor="middle" x="124.5" y="-158.3" font-family="Times,serif" font-size="14.00">mulle&#45;buffer</text>
</a>
</g>
</g>
<!-- mulle&#45;sprintf&#45;&gt;mulle&#45;buffer -->
<g id="edge5" class="edge">
<title>mulle&#45;sprintf&#45;&gt;mulle&#45;buffer</title>
<path fill="none" stroke="black" d="M315.9,-217.46C277.67,-206.59 226.51,-192.03 186.7,-180.7"/>
<polygon fill="black" stroke="black" points="187.41,-177.26 176.83,-177.89 185.5,-184 187.41,-177.26"/>
</g>
<!-- mulle&#45;dtostr -->
<g id="node8" class="node">
<title>mulle&#45;dtostr</title>
<g id="a_node8"><a xlink:href="https://github.com/mulle-core/mulle-dtostr" xlink:title="mulle&#45;dtostr">
<polygon fill="lightgrey" stroke="black" points="298.5,-180 194.5,-180 194.5,-144 298.5,-144 298.5,-180"/>
<text text-anchor="middle" x="246.5" y="-158.3" font-family="Times,serif" font-size="14.00">mulle&#45;dtostr</text>
</a>
</g>
</g>
<!-- mulle&#45;sprintf&#45;&gt;mulle&#45;dtostr -->
<g id="edge6" class="edge">
<title>mulle&#45;sprintf&#45;&gt;mulle&#45;dtostr</title>
<path fill="none" stroke="black" d="M340.17,-215.88C323.8,-206.64 303.42,-195.13 285.85,-185.21"/>
<polygon fill="black" stroke="black" points="287.38,-182.06 276.95,-180.19 283.94,-188.15 287.38,-182.06"/>
</g>
<!-- mulle&#45;thread -->
<g id="node9" class="node">
<title>mulle&#45;thread</title>
<g id="a_node9"><a xlink:href="https://github.com/mulle-concurrent/mulle-thread" xlink:title="mulle&#45;thread">
<polygon fill="lightgrey" stroke="black" points="424.5,-180 316.5,-180 316.5,-144 424.5,-144 424.5,-180"/>
<text text-anchor="middle" x="370.5" y="-158.3" font-family="Times,serif" font-size="14.00">mulle&#45;thread</text>
</a>
</g>
</g>
<!-- mulle&#45;sprintf&#45;&gt;mulle&#45;thread -->
<g id="edge7" class="edge">
<title>mulle&#45;sprintf&#45;&gt;mulle&#45;thread</title>
<path fill="none" stroke="black" d="M370.5,-215.7C370.5,-207.98 370.5,-198.71 370.5,-190.11"/>
<polygon fill="black" stroke="black" points="374,-190.1 370.5,-180.1 367,-190.1 374,-190.1"/>
</g>
<!-- mulle&#45;utf -->
<g id="node10" class="node">
<title>mulle&#45;utf</title>
<g id="a_node10"><a xlink:href="https://github.com/mulle-c/mulle-utf" xlink:title="mulle&#45;utf">
<polygon fill="lightgrey" stroke="black" points="524,-180 443,-180 443,-144 524,-144 524,-180"/>
<text text-anchor="middle" x="483.5" y="-158.3" font-family="Times,serif" font-size="14.00">mulle&#45;utf</text>
</a>
</g>
</g>
<!-- mulle&#45;sprintf&#45;&gt;mulle&#45;utf -->
<g id="edge8" class="edge">
<title>mulle&#45;sprintf&#45;&gt;mulle&#45;utf</title>
<path fill="none" stroke="black" d="M398.14,-215.88C412.92,-206.72 431.29,-195.34 447.2,-185.48"/>
<polygon fill="black" stroke="black" points="449.09,-188.43 455.75,-180.19 445.41,-182.48 449.09,-188.43"/>
</g>
<!-- mulle&#45;vararg -->
<g id="node11" class="node">
<title>mulle&#45;vararg</title>
<g id="a_node11"><a xlink:href="https://github.com/mulle-c/mulle-vararg" xlink:title="mulle&#45;vararg">
<polygon fill="lightgrey" stroke="black" points="650.5,-180 542.5,-180 542.5,-144 650.5,-144 650.5,-180"/>
<text text-anchor="middle" x="596.5" y="-158.3" font-family="Times,serif" font-size="14.00">mulle&#45;vararg</text>
</a>
</g>
</g>
<!-- mulle&#45;sprintf&#45;&gt;mulle&#45;vararg -->
<g id="edge9" class="edge">
<title>mulle&#45;sprintf&#45;&gt;mulle&#45;vararg</title>
<path fill="none" stroke="black" d="M425.21,-216.05C457.55,-206.04 498.66,-193.3 532.5,-182.82"/>
<polygon fill="black" stroke="black" points="533.78,-186.09 542.3,-179.79 531.71,-179.4 533.78,-186.09"/>
</g>
<!-- mintomic -->
<g id="node2" class="node">
<title>mintomic</title>
<g id="a_node2"><a xlink:href="https://github.com/mulle-concurrent/mintomic" xlink:title="mintomic">
<polygon fill="lightgrey" stroke="black" points="412,-108 329,-108 329,-72 412,-72 412,-108"/>
<text text-anchor="middle" x="370.5" y="-86.3" font-family="Times,serif" font-size="14.00">mintomic</text>
</a>
</g>
</g>
<!-- mulle&#45;allocator -->
<g id="node3" class="node">
<title>mulle&#45;allocator</title>
<g id="a_node3"><a xlink:href="https://github.com/mulle-c/mulle-allocator" xlink:title="mulle&#45;allocator">
<polygon fill="lightgrey" stroke="black" points="123,-108 0,-108 0,-72 123,-72 123,-108"/>
<text text-anchor="middle" x="61.5" y="-86.3" font-family="Times,serif" font-size="14.00">mulle&#45;allocator</text>
</a>
</g>
</g>
<!-- mulle&#45;c11 -->
<g id="node4" class="node">
<title>mulle&#45;c11</title>
<g id="a_node4"><a xlink:href="https://github.com/mulle-c/mulle-c11" xlink:title="mulle&#45;c11">
<polygon fill="lightgrey" stroke="black" points="104.5,-36 18.5,-36 18.5,0 104.5,0 104.5,-36"/>
<text text-anchor="middle" x="61.5" y="-14.3" font-family="Times,serif" font-size="14.00">mulle&#45;c11</text>
</a>
</g>
</g>
<!-- mulle&#45;allocator&#45;&gt;mulle&#45;c11 -->
<g id="edge1" class="edge">
<title>mulle&#45;allocator&#45;&gt;mulle&#45;c11</title>
<path fill="none" stroke="black" d="M61.5,-71.7C61.5,-63.98 61.5,-54.71 61.5,-46.11"/>
<polygon fill="black" stroke="black" points="65,-46.1 61.5,-36.1 58,-46.1 65,-46.1"/>
</g>
<!-- mulle&#45;buffer&#45;&gt;mulle&#45;allocator -->
<g id="edge2" class="edge">
<title>mulle&#45;buffer&#45;&gt;mulle&#45;allocator</title>
<path fill="none" stroke="black" d="M108.93,-143.7C101.3,-135.22 91.98,-124.86 83.62,-115.58"/>
<polygon fill="black" stroke="black" points="86.19,-113.2 76.89,-108.1 80.98,-117.88 86.19,-113.2"/>
</g>
<!-- mulle&#45;data -->
<g id="node6" class="node">
<title>mulle&#45;data</title>
<g id="a_node6"><a xlink:href="https://github.com/mulle-c/mulle-data" xlink:title="mulle&#45;data">
<polygon fill="lightgrey" stroke="black" points="233.5,-108 141.5,-108 141.5,-72 233.5,-72 233.5,-108"/>
<text text-anchor="middle" x="187.5" y="-86.3" font-family="Times,serif" font-size="14.00">mulle&#45;data</text>
</a>
</g>
</g>
<!-- mulle&#45;buffer&#45;&gt;mulle&#45;data -->
<g id="edge3" class="edge">
<title>mulle&#45;buffer&#45;&gt;mulle&#45;data</title>
<path fill="none" stroke="black" d="M140.07,-143.7C147.7,-135.22 157.02,-124.86 165.38,-115.58"/>
<polygon fill="black" stroke="black" points="168.02,-117.88 172.11,-108.1 162.81,-113.2 168.02,-117.88"/>
</g>
<!-- xxhash.h -->
<g id="node7" class="node">
<title>xxhash.h</title>
<g id="a_node7"><a xlink:href="https://raw.githubusercontent.com/mulle-c/xxHash" xlink:title="xxhash.h">
<polygon fill="lightgrey" stroke="black" points="227.5,-36 147.5,-36 147.5,0 227.5,0 227.5,-36"/>
<text text-anchor="middle" x="187.5" y="-14.3" font-family="Times,serif" font-size="14.00">xxhash.h</text>
</a>
</g>
</g>
<!-- mulle&#45;data&#45;&gt;xxhash.h -->
<g id="edge4" class="edge">
<title>mulle&#45;data&#45;&gt;xxhash.h</title>
<path fill="none" stroke="black" d="M187.5,-71.7C187.5,-63.98 187.5,-54.71 187.5,-46.11"/>
<polygon fill="black" stroke="black" points="191,-46.1 187.5,-36.1 184,-46.1 191,-46.1"/>
</g>
<!-- mulle&#45;thread&#45;&gt;mintomic -->
<g id="edge10" class="edge">
<title>mulle&#45;thread&#45;&gt;mintomic</title>
<path fill="none" stroke="black" d="M370.5,-143.7C370.5,-135.98 370.5,-126.71 370.5,-118.11"/>
<polygon fill="black" stroke="black" points="374,-118.1 370.5,-108.1 367,-118.1 374,-118.1"/>
</g>
</g>
</svg>
