<?xml version="1.0" encoding="UTF-8" standalone="no"?>
<!DOCTYPE svg PUBLIC "-//W3C//DTD SVG 1.1//EN"
 "http://www.w3.org/Graphics/SVG/1.1/DTD/svg11.dtd">
<!-- Generated by graphviz version 2.43.0 (0)
 -->
<!-- Title: sourcetree Pages: 1 -->
<svg width="591pt" height="260pt"
 viewBox="0.00 0.00 590.50 260.00" xmlns="http://www.w3.org/2000/svg" xmlns:xlink="http://www.w3.org/1999/xlink">
<g id="graph0" class="graph" transform="scale(1 1) rotate(0) translate(4 256)">
<title>sourcetree</title>
<polygon fill="white" stroke="transparent" points="-4,4 -4,-256 586.5,-256 586.5,4 -4,4"/>
<!-- mulle&#45;sprintf -->
<g id="node1" class="node">
<title>mulle&#45;sprintf</title>
<polygon fill="yellow" stroke="black" points="413,-252 304,-252 304,-216 413,-216 413,-252"/>
<text text-anchor="middle" x="358.5" y="-230.3" font-family="Times,serif" font-size="14.00">mulle&#45;sprintf</text>
</g>
<!-- mulle&#45;buffer -->
<g id="node4" class="node">
<title>mulle&#45;buffer</title>
<polygon fill="lightgrey" stroke="black" points="230.5,-180 126.5,-180 126.5,-144 230.5,-144 230.5,-180"/>
<text text-anchor="middle" x="178.5" y="-158.3" font-family="Times,serif" font-size="14.00">mulle&#45;buffer</text>
</g>
<!-- mulle&#45;sprintf&#45;&gt;mulle&#45;buffer -->
<g id="edge5" class="edge">
<title>mulle&#45;sprintf&#45;&gt;mulle&#45;buffer</title>
<path fill="none" stroke="black" d="M314.47,-215.88C289.53,-206.18 258.16,-193.98 231.84,-183.74"/>
<polygon fill="black" stroke="black" points="232.98,-180.43 222.39,-180.07 230.44,-186.95 232.98,-180.43"/>
</g>
<!-- mulle&#45;thread -->
<g id="node7" class="node">
<title>mulle&#45;thread</title>
<polygon fill="lightgrey" stroke="black" points="356.5,-180 248.5,-180 248.5,-144 356.5,-144 356.5,-180"/>
<text text-anchor="middle" x="302.5" y="-158.3" font-family="Times,serif" font-size="14.00">mulle&#45;thread</text>
</g>
<!-- mulle&#45;sprintf&#45;&gt;mulle&#45;thread -->
<g id="edge6" class="edge">
<title>mulle&#45;sprintf&#45;&gt;mulle&#45;thread</title>
<path fill="none" stroke="black" d="M344.66,-215.7C338.01,-207.39 329.92,-197.28 322.61,-188.14"/>
<polygon fill="black" stroke="black" points="325.16,-185.73 316.18,-180.1 319.7,-190.1 325.16,-185.73"/>
</g>
<!-- mulle&#45;utf -->
<g id="node8" class="node">
<title>mulle&#45;utf</title>
<polygon fill="lightgrey" stroke="black" points="456,-180 375,-180 375,-144 456,-144 456,-180"/>
<text text-anchor="middle" x="415.5" y="-158.3" font-family="Times,serif" font-size="14.00">mulle&#45;utf</text>
</g>
<!-- mulle&#45;sprintf&#45;&gt;mulle&#45;utf -->
<g id="edge7" class="edge">
<title>mulle&#45;sprintf&#45;&gt;mulle&#45;utf</title>
<path fill="none" stroke="black" d="M372.59,-215.7C379.42,-207.3 387.76,-197.07 395.26,-187.86"/>
<polygon fill="black" stroke="black" points="397.97,-190.07 401.57,-180.1 392.54,-185.65 397.97,-190.07"/>
</g>
<!-- mulle&#45;vararg -->
<g id="node9" class="node">
<title>mulle&#45;vararg</title>
<polygon fill="lightgrey" stroke="black" points="582.5,-180 474.5,-180 474.5,-144 582.5,-144 582.5,-180"/>
<text text-anchor="middle" x="528.5" y="-158.3" font-family="Times,serif" font-size="14.00">mulle&#45;vararg</text>
</g>
<!-- mulle&#45;sprintf&#45;&gt;mulle&#45;vararg -->
<g id="edge8" class="edge">
<title>mulle&#45;sprintf&#45;&gt;mulle&#45;vararg</title>
<path fill="none" stroke="black" d="M400.09,-215.88C423.53,-206.22 453,-194.09 477.8,-183.88"/>
<polygon fill="black" stroke="black" points="479.13,-187.11 487.05,-180.07 476.47,-180.64 479.13,-187.11"/>
</g>
<!-- mulle&#45;allocator -->
<g id="node2" class="node">
<title>mulle&#45;allocator</title>
<polygon fill="lightgrey" stroke="black" points="123,-108 0,-108 0,-72 123,-72 123,-108"/>
<text text-anchor="middle" x="61.5" y="-86.3" font-family="Times,serif" font-size="14.00">mulle&#45;allocator</text>
</g>
<!-- mulle&#45;c11 -->
<g id="node3" class="node">
<title>mulle&#45;c11</title>
<polygon fill="lightgrey" stroke="black" points="104.5,-36 18.5,-36 18.5,0 104.5,0 104.5,-36"/>
<text text-anchor="middle" x="61.5" y="-14.3" font-family="Times,serif" font-size="14.00">mulle&#45;c11</text>
</g>
<!-- mulle&#45;allocator&#45;&gt;mulle&#45;c11 -->
<g id="edge1" class="edge">
<title>mulle&#45;allocator&#45;&gt;mulle&#45;c11</title>
<path fill="none" stroke="black" d="M61.5,-71.7C61.5,-63.98 61.5,-54.71 61.5,-46.11"/>
<polygon fill="black" stroke="black" points="65,-46.1 61.5,-36.1 58,-46.1 65,-46.1"/>
</g>
<!-- mulle&#45;buffer&#45;&gt;mulle&#45;allocator -->
<g id="edge2" class="edge">
<title>mulle&#45;buffer&#45;&gt;mulle&#45;allocator</title>
<path fill="none" stroke="black" d="M149.88,-143.88C134.58,-134.72 115.56,-123.34 99.08,-113.48"/>
<polygon fill="black" stroke="black" points="100.61,-110.32 90.23,-108.19 97.02,-116.33 100.61,-110.32"/>
</g>
<!-- mulle&#45;data -->
<g id="node5" class="node">
<title>mulle&#45;data</title>
<polygon fill="lightgrey" stroke="black" points="233.5,-108 141.5,-108 141.5,-72 233.5,-72 233.5,-108"/>
<text text-anchor="middle" x="187.5" y="-86.3" font-family="Times,serif" font-size="14.00">mulle&#45;data</text>
</g>
<!-- mulle&#45;buffer&#45;&gt;mulle&#45;data -->
<g id="edge3" class="edge">
<title>mulle&#45;buffer&#45;&gt;mulle&#45;data</title>
<path fill="none" stroke="black" d="M180.72,-143.7C181.72,-135.98 182.91,-126.71 184.01,-118.11"/>
<polygon fill="black" stroke="black" points="187.5,-118.47 185.3,-108.1 180.55,-117.58 187.5,-118.47"/>
</g>
<!-- src/farmhash -->
<g id="node6" class="node">
<title>src/farmhash</title>
<polygon fill="lightgrey" stroke="black" points="242.5,-36 132.5,-36 132.5,0 242.5,0 242.5,-36"/>
<text text-anchor="middle" x="187.5" y="-14.3" font-family="Times,serif" font-size="14.00">src/farmhash</text>
</g>
<!-- mulle&#45;data&#45;&gt;src/farmhash -->
<g id="edge4" class="edge">
<title>mulle&#45;data&#45;&gt;src/farmhash</title>
<path fill="none" stroke="black" d="M187.5,-71.7C187.5,-63.98 187.5,-54.71 187.5,-46.11"/>
<polygon fill="black" stroke="black" points="191,-46.1 187.5,-36.1 184,-46.1 191,-46.1"/>
</g>
<!-- mintomic -->
<g id="node10" class="node">
<title>mintomic</title>
<polygon fill="lightgrey" stroke="black" points="344,-108 261,-108 261,-72 344,-72 344,-108"/>
<text text-anchor="middle" x="302.5" y="-86.3" font-family="Times,serif" font-size="14.00">mintomic</text>
</g>
<!-- mulle&#45;thread&#45;&gt;mintomic -->
<g id="edge9" class="edge">
<title>mulle&#45;thread&#45;&gt;mintomic</title>
<path fill="none" stroke="black" d="M302.5,-143.7C302.5,-135.98 302.5,-126.71 302.5,-118.11"/>
<polygon fill="black" stroke="black" points="306,-118.1 302.5,-108.1 299,-118.1 306,-118.1"/>
</g>
</g>
</svg>
