<?xml version="1.0" encoding="UTF-8" standalone="no"?>
<!DOCTYPE svg PUBLIC "-//W3C//DTD SVG 1.1//EN"
 "http://www.w3.org/Graphics/SVG/1.1/DTD/svg11.dtd">
<!-- Generated by graphviz version 2.43.0 (0)
 -->
<!-- Title: sourcetree Pages: 1 -->
<svg width="464pt" height="116pt"
 viewBox="0.00 0.00 464.00 116.00" xmlns="http://www.w3.org/2000/svg" xmlns:xlink="http://www.w3.org/1999/xlink">
<g id="graph0" class="graph" transform="scale(1 1) rotate(0) translate(4 112)">
<title>sourcetree</title>
<polygon fill="white" stroke="transparent" points="-4,4 -4,-112 460,-112 460,4 -4,4"/>
<!-- mulle&#45;sprintf -->
<g id="node1" class="node">
<title>mulle&#45;sprintf</title>
<polygon fill="yellow" stroke="black" points="286.5,-108 177.5,-108 177.5,-72 286.5,-72 286.5,-108"/>
<text text-anchor="middle" x="232" y="-86.3" font-family="Times,serif" font-size="14.00">mulle&#45;sprintf</text>
</g>
<!-- mulle&#45;buffer -->
<g id="node2" class="node">
<title>mulle&#45;buffer</title>
<g id="a_node2"><a xlink:href="https://github.com/mulle-c/mulle-buffer" xlink:title="mulle&#45;buffer">
<polygon fill="lightgrey" stroke="black" points="104,-36 0,-36 0,0 104,0 104,-36"/>
<text text-anchor="middle" x="52" y="-14.3" font-family="Times,serif" font-size="14.00">mulle&#45;buffer</text>
</a>
</g>
</g>
<!-- mulle&#45;sprintf&#45;&gt;mulle&#45;buffer -->
<g id="edge1" class="edge">
<title>mulle&#45;sprintf&#45;&gt;mulle&#45;buffer</title>
<path fill="none" stroke="black" d="M187.97,-71.88C163.03,-62.18 131.66,-49.98 105.34,-39.74"/>
<polygon fill="black" stroke="black" points="106.48,-36.43 95.89,-36.07 103.94,-42.95 106.48,-36.43"/>
</g>
<!-- mulle&#45;thread -->
<g id="node3" class="node">
<title>mulle&#45;thread</title>
<g id="a_node3"><a xlink:href="https://github.com/mulle-concurrent/mulle-thread" xlink:title="mulle&#45;thread">
<polygon fill="lightgrey" stroke="black" points="230,-36 122,-36 122,0 230,0 230,-36"/>
<text text-anchor="middle" x="176" y="-14.3" font-family="Times,serif" font-size="14.00">mulle&#45;thread</text>
</a>
</g>
</g>
<!-- mulle&#45;sprintf&#45;&gt;mulle&#45;thread -->
<g id="edge2" class="edge">
<title>mulle&#45;sprintf&#45;&gt;mulle&#45;thread</title>
<path fill="none" stroke="black" d="M218.16,-71.7C211.51,-63.39 203.42,-53.28 196.11,-44.14"/>
<polygon fill="black" stroke="black" points="198.66,-41.73 189.68,-36.1 193.2,-46.1 198.66,-41.73"/>
</g>
<!-- mulle&#45;utf -->
<g id="node4" class="node">
<title>mulle&#45;utf</title>
<g id="a_node4"><a xlink:href="https://github.com/mulle-c/mulle-utf" xlink:title="mulle&#45;utf">
<polygon fill="lightgrey" stroke="black" points="329.5,-36 248.5,-36 248.5,0 329.5,0 329.5,-36"/>
<text text-anchor="middle" x="289" y="-14.3" font-family="Times,serif" font-size="14.00">mulle&#45;utf</text>
</a>
</g>
</g>
<!-- mulle&#45;sprintf&#45;&gt;mulle&#45;utf -->
<g id="edge3" class="edge">
<title>mulle&#45;sprintf&#45;&gt;mulle&#45;utf</title>
<path fill="none" stroke="black" d="M246.09,-71.7C252.92,-63.3 261.26,-53.07 268.76,-43.86"/>
<polygon fill="black" stroke="black" points="271.47,-46.07 275.07,-36.1 266.04,-41.65 271.47,-46.07"/>
</g>
<!-- mulle&#45;vararg -->
<g id="node5" class="node">
<title>mulle&#45;vararg</title>
<g id="a_node5"><a xlink:href="https://github.com/mulle-c/mulle-vararg" xlink:title="mulle&#45;vararg">
<polygon fill="lightgrey" stroke="black" points="456,-36 348,-36 348,0 456,0 456,-36"/>
<text text-anchor="middle" x="402" y="-14.3" font-family="Times,serif" font-size="14.00">mulle&#45;vararg</text>
</a>
</g>
</g>
<!-- mulle&#45;sprintf&#45;&gt;mulle&#45;vararg -->
<g id="edge4" class="edge">
<title>mulle&#45;sprintf&#45;&gt;mulle&#45;vararg</title>
<path fill="none" stroke="black" d="M273.59,-71.88C297.03,-62.22 326.5,-50.09 351.3,-39.88"/>
<polygon fill="black" stroke="black" points="352.63,-43.11 360.55,-36.07 349.97,-36.64 352.63,-43.11"/>
</g>
</g>
</svg>
